<?xml version="1.0" encoding="UTF-8" standalone="no"?>
<!-- Created with Inkscape (http://www.inkscape.org/) -->

<svg
   width="120.38303mm"
   height="135.46667mm"
   viewBox="0 0 120.38303 135.46667"
   version="1.1"
   id="svg5"
   inkscape:version="1.1.2 (0a00cf5339, 2022-02-04)"
   sodipodi:docname="solidvectorsimpleAttempt1.svg"
   xmlns:inkscape="http://www.inkscape.org/namespaces/inkscape"
   xmlns:sodipodi="http://sodipodi.sourceforge.net/DTD/sodipodi-0.dtd"
   xmlns="http://www.w3.org/2000/svg"
   xmlns:svg="http://www.w3.org/2000/svg">
  <sodipodi:namedview
     id="namedview7"
     pagecolor="#505050"
     bordercolor="#ffffff"
     borderopacity="1"
     inkscape:pageshadow="0"
     inkscape:pageopacity="0"
     inkscape:pagecheckerboard="1"
     inkscape:document-units="mm"
     showgrid="false"
     inkscape:zoom="0.38425619"
     inkscape:cx="84.578989"
     inkscape:cy="346.12325"
     inkscape:window-width="1290"
     inkscape:window-height="828"
     inkscape:window-x="0"
     inkscape:window-y="0"
     inkscape:window-maximized="1"
     inkscape:current-layer="g94144"
     inkscape:snap-global="false"
     showguides="false"
     fit-margin-top="0"
     fit-margin-left="0"
     fit-margin-right="0"
     fit-margin-bottom="0" />
  <defs
     id="defs2" />
  <g
     inkscape:label="Layer 1 copy 1"
     inkscape:groupmode="layer"
     id="g94144"
     style="display:inline;opacity:1"
     transform="translate(-16.261539,-20.619552)">
    <g
       id="path94136"
       style="fill:#000000"
       inkscape:groupmode="layer" />
    <g
       id="g114970"
       transform="matrix(1.8649111,0,0,1.8649111,-14.064787,-17.83408)">
      <g
         id="path99539"
         inkscape:label="red ear inside"
         style="display:inline;fill:#000000" />
      <path
         id="path94138"
         style="color:#000000;fill:#000000;stroke-width:1;-inkscape-stroke:none"
         d="m 37.359476,51.368957 c -1.704941,0.419041 0.129894,1.749004 0.425275,2.682806 1.536062,2.692265 3.526007,5.149606 5.879251,7.170856 1.506246,0.122352 3.113812,0.633355 4.556778,0.512961 1.701903,-0.452995 1.810597,-2.804617 0.08582,-1.325142 -0.915834,0.827683 -2.283838,-0.08021 -3.399935,-0.0212 -1.403313,-0.09767 -2.252554,-1.541309 -3.14723,-2.49415 -1.796216,-1.962155 -3.07482,-4.237453 -4.399954,-6.52613 z m 15.576311,5.508191 c -1.207283,0.353187 -2.807906,2.804173 -0.75775,1.83588 0.67818,-0.672746 1.962015,-0.87271 0.75775,-1.83588 z" />
      <path
         id="path94110"
         style="font-variation-settings:normal;display:inline;opacity:1;fill:#000000;fill-opacity:1;stroke:none;stroke-width:1;stroke-linecap:butt;stroke-linejoin:miter;stroke-miterlimit:4;stroke-dasharray:none;stroke-dashoffset:0;stroke-opacity:1;stop-color:#000000;stop-opacity:1"
         inkscape:label="red ear "
         d="m 80.544955,36.325947 c -2.336499,0.215471 -4.740312,0.2643 -6.990173,0.767329 -3.638859,-0.262919 -7.803464,0.296685 -10.629635,2.767991 -2.276615,0.80935 -1.61259,6.17075 0.545364,3.023182 2.963858,-2.107538 6.473188,-2.468189 9.51828,-4.403611 1.604645,-0.574871 6.964558,-2.035659 3.952137,0.517549 -1.263216,1.788401 -2.426068,4.314018 -5.048359,4.025696 -1.918782,-0.03814 -3.902151,-0.309539 -5.658165,0.696627 -1.712714,0.629729 -4.799242,0.90342 -4.860427,3.013432 0.05762,2.645217 4.570301,-0.560424 6.220761,-0.629523 2.1272,-1.748417 4.608219,-1.909183 7.030062,-2.753839 1.963052,-0.952995 2.420051,-3.441631 4.051133,-4.844029 0.623006,-0.726934 1.246015,-1.453869 1.869022,-2.180804 z"
         sodipodi:nodetypes="cccccccccccccccssscccccccccccscccscccccccccccccccccccccc" />
      <path
         id="path94112"
         style="font-variation-settings:normal;display:inline;opacity:1;fill:#000000;fill-opacity:1;stroke:none;stroke-width:1;stroke-linecap:butt;stroke-linejoin:miter;stroke-miterlimit:4;stroke-dasharray:none;stroke-dashoffset:0;stroke-opacity:1;stop-color:#000000;stop-opacity:1"
         inkscape:label="Yellow body"
         d="m 44.877881,24.405228 c -2.542484,0.351819 -5.084945,0.70383 -7.627395,1.055898 1.545828,1.353048 1.788967,3.336335 2.30583,5.189622 -0.30395,3.002579 -0.530481,6.115283 -2.252561,8.727697 -0.441071,1.020133 0.291065,-2.274708 -1.656033,-1.788134 -2.052283,-0.283252 -2.043081,-3.746002 -2.556407,-0.584311 -0.530804,1.651471 -0.275791,3.500459 -1.185254,5.026052 0.375516,1.933043 0.751033,3.866086 1.126549,5.799129 -1.365237,2.001203 -2.730474,4.002405 -4.095711,6.003608 -0.02282,1.073634 0.541282,2.491242 0.179081,3.365968 -2.333683,0.992664 -4.667367,1.985327 -7.001051,2.977991 -1.95113,7.536836 -3.90226,15.07367 -5.853389,22.610506 9.148278,3.435622 18.296557,6.871242 27.444835,10.306865 -0.218866,-2.674229 -0.31532,-5.275972 -1.010264,-7.889309 -0.614204,-3.150997 1.216549,-6.411989 -0.237112,-9.451986 -0.216011,-2.380445 -0.984329,-4.736097 -0.892164,-7.161133 -3.746317,-1.991611 -7.214246,-4.531518 -10.043316,-7.70909 1.842267,-5.265203 4.429278,-10.245228 6.437334,-15.454871 1.441378,-2.122797 1.548082,-4.910918 2.918248,-7.084673 1.009816,-1.420842 2.133803,-2.718491 3.701275,-3.53763 1.431655,-0.665994 3.130116,-0.876216 4.692602,-1.131012 1.921248,-0.149365 3.781187,0.149164 5.595162,0.783458 1.985857,0.92556 4.256336,1.674055 5.544055,3.469031 -0.180874,-1.960332 -0.668914,-3.905536 -1.853821,-5.513803 -1.141079,-2.060435 -2.314874,-4.192688 -4.234522,-5.605677 -2.551242,-0.839038 -4.958498,-2.30606 -7.714622,-2.251529 -0.577117,-0.05089 -1.154232,-0.101778 -1.731349,-0.152667 z m -7.656899,2.526979 c -2.210554,1.668253 -0.0101,2.812653 0.226108,4.837411 -0.05312,1.590808 1.597419,4.463098 1.377214,1.113925 -0.100121,-2.049301 -0.392199,-4.234997 -1.603322,-5.951336 z m -2.51664,4.5036 c -1.023096,1.978917 -0.427019,4.213108 1.180621,5.72176 2.191436,2.479021 1.722761,-2.471669 0.326779,-3.503808 -0.489217,-0.747416 -0.888428,-1.562709 -1.5074,-2.217952 z m 3.304707,16.47858 c -1.656175,4.286494 -3.808918,8.372954 -5.337141,12.702585 2.471704,2.757056 5.68936,5.124842 8.826299,6.759792 0.152974,-1.932188 -1.213411,-3.561276 -1.797648,-5.38249 -0.843243,-1.841341 -1.6848,-3.683151 -1.731462,-5.745321 -0.433578,-2.45245 -0.694984,-4.936958 -0.116898,-7.39213 0.05228,-0.314145 0.104566,-0.628291 0.15685,-0.942436 z m 5.004864,38.769211 c -0.08307,0.0049 0.114876,0.207298 0,0 z m 0.300754,1.458825 c -0.0012,0.04866 0.04108,0.146947 0,0 z m 0.821656,5.078759 c -0.200031,-0.05271 0.03989,0.107749 0,0 z"
         sodipodi:nodetypes="cccccccccccccccccccccccccccccccccssscsscccccccsccccccccccccscccsscccccccccccccccccccccccccsccccccsscsccccccscssccccccccccccccsccccc" />
      <path
         id="path94114"
         style="font-variation-settings:normal;display:inline;opacity:1;fill:#000000;fill-opacity:1;stroke:none;stroke-width:1;stroke-linecap:butt;stroke-linejoin:miter;stroke-miterlimit:4;stroke-dasharray:none;stroke-dashoffset:0;stroke-opacity:1;stop-color:#000000;stop-opacity:1"
         inkscape:label="Red body"
         d="m 50.600527,61.764187 c -2.666656,1.661636 -5.482518,3.146338 -8.131802,4.788855 0.134231,2.337067 0.05381,4.650669 0.794377,6.871221 -0.340238,3.596598 3.679103,5.492965 3.423785,9.079802 -0.08528,2.76856 -3.1931,4.378256 -2.247066,7.468944 -0.56605,2.695223 0.844722,2.854393 2.868538,2.042975 4.972609,-1.147535 9.945214,-2.295073 14.917822,-3.442608 -0.651266,-3.521892 -4.418375,-4.806979 -5.521465,-7.904345 -0.706813,-2.48857 -1.198814,-4.785347 -4.091278,-4.833509 -2.096162,-1.926608 -2.994875,-4.864727 -4.785344,-7.095558 0.45127,-2.477096 1.218657,-4.95418 2.772433,-6.975777 z m -7.928713,9.009269 c -0.009,0.05263 0.01584,-0.0028 0,0 z m -0.328147,0.02326 c -0.108479,0.01931 0.05648,-0.0029 0,0 z"
         sodipodi:nodetypes="cccccccccccccccccscscccscccccccccccccccccccc" />
      <path
         id="path94116"
         style="font-variation-settings:normal;display:inline;opacity:1;fill:#000000;fill-opacity:1;stroke:none;stroke-width:1;stroke-linecap:butt;stroke-linejoin:miter;stroke-miterlimit:4;stroke-dasharray:none;stroke-dashoffset:0;stroke-opacity:1;stop-color:#000000;stop-opacity:1"
         inkscape:label="Sleeve"
         d="m 60.00719,54.70622 c -1.848485,3.375023 4.69211,2.707029 2.421837,6.092931 -2.319399,2.47986 -4.775274,7.82152 -7.916045,8.016822 -2.807698,1.58518 -3.858075,-2.894126 -2.314101,-4.66227 -1.076878,-3.883203 -3.703336,3.26182 -2.959045,4.881385 2.002028,2.282354 3.047691,7.934872 7.09046,5.894205 1.443112,-0.807069 3.186782,-1.245743 4.433972,-2.292956 1.496296,-2.031984 3.219424,-3.932248 3.994399,-6.383105 0.737746,-1.61757 1.54736,-3.217188 1.436,-5.046824 -1.676432,-1.999668 -3.257765,-4.392964 -5.342835,-6.053423 L 60.43841,54.897863 60.00719,54.706218 Z m 7.129795,7.270359 c 0.01777,2.395116 -1.533188,4.398404 -2.29494,6.598816 -0.941197,1.885138 -2.473981,3.426757 -3.6587,5.17049 -1.665359,0.785654 -3.330718,1.571308 -4.996077,2.356962 0.71034,3.750119 2.707687,6.461707 5.323054,8.926181 0.96075,2.59465 2.363018,3.251968 4.961094,2.197016 5.432009,-0.894207 10.706618,-3.362548 14.341739,-7.578709 -2.413323,-3.22711 -4.272314,-6.841821 -6.539804,-10.157161 -0.645374,-3.641477 -4.760804,-4.536464 -6.789769,-7.19455 z"
         sodipodi:nodetypes="scccccszcsccccccccccccccssccccccccccccc" />
      <path
         id="path94120"
         style="font-variation-settings:normal;display:inline;opacity:1;fill:#000000;fill-opacity:1;stroke:none;stroke-width:1;stroke-linecap:butt;stroke-linejoin:miter;stroke-miterlimit:4;stroke-dasharray:none;stroke-dashoffset:0;stroke-opacity:1;stop-color:#000000;stop-opacity:1"
         inkscape:label="yellow ear"
         d="m 27.562659,21.20129 c 1.538047,1.638171 4.12624,3.560505 5.815324,5.570643 3.20734,1.562288 4.532805,4.822044 5.010359,8.174254 1.384353,-0.545938 -0.140993,-5.260752 -0.605131,-7.114293 -1.007663,-3.015227 -4.430622,-3.081178 -6.497857,-4.970982 -1.124423,-0.765651 -2.344631,-1.49719 -3.722695,-1.659622 z m 2.452047,8.711612 c 0.421886,2.202445 4.075766,2.491592 4.512903,4.923213 0.04591,2.386833 3.734453,4.487172 2.785475,1.157383 -1.072177,-2.467687 -2.412934,-5.840312 -5.677744,-5.62538 -1.813436,-0.232923 -1.90427,-0.375261 -1.620634,-0.455216 z"
         sodipodi:nodetypes="csccccccccccccccccsccccscccccccs" />
      <path
         id="path94126"
         style="font-variation-settings:normal;display:inline;opacity:1;fill:#000000;fill-opacity:1;stroke:none;stroke-width:1;stroke-linecap:butt;stroke-linejoin:miter;stroke-miterlimit:4;stroke-dasharray:none;stroke-dashoffset:0;stroke-opacity:1;stop-color:#000000;stop-opacity:1"
         inkscape:label="Hand"
         d="m 56.33403,36.183837 c -3.394544,0.960744 0.05255,5.559433 -0.514163,7.91728 0.09153,1.715532 -0.553108,5.613482 -1.603578,1.90155 -1.343012,-2.414169 -1.649169,-6.334897 -3.769239,-7.941942 -3.227051,1.2573 0.291854,5.702752 0.575078,8.166915 0.540366,1.313939 1.341495,4.27011 -0.633701,1.769697 -1.21048,-1.202452 -4.556096,-6.422308 -5.103336,-2.516394 1.5113,3.32563 5.146397,5.529482 4.417859,9.595646 -1.07918,3.954246 2.94672,6.370595 4.185255,9.756984 0.777492,1.893605 1.770298,3.401605 2.996023,0.830922 1.662332,-2.629287 6.458834,-5.084435 2.479585,-7.747164 -1.478431,-3.33946 1.02951,-7.297386 0.989589,-10.782784 0.405689,-3.045455 0.222356,-6.175145 -1.258271,-8.940102 -1.714288,-2.342041 -0.914384,0.974995 -0.64095,2.153526 0.789662,1.370975 0.938673,6.473132 -0.385919,5.28697 0.337259,-2.905511 -0.910159,-5.694264 -1.249077,-8.561221 -0.122152,-0.32196 0.03395,-0.850196 -0.485155,-0.889883 z"
         sodipodi:nodetypes="cccccccccccccccccccccccccccccccccccccccscscccccccc" />
      <g
         id="path94132"
         inkscape:label="yellow ear inside"
         style="display:inline;fill:#000000">
        <path
           style="color:#000000;display:inline;fill:#000000;-inkscape-stroke:none"
           d="m 25.410156,20.683594 c -2.738588,-0.270547 -3.654058,0.282002 -1.390419,2.312313 2.039806,2.185847 2.751567,5.442795 5.294456,7.138303 3.150358,0.574883 6.175267,1.681116 7.141164,5.102999 0.493315,2.564302 1.918802,4.321194 2.576211,0.722356 -0.567078,-2.95349 -0.87042,-6.31928 -3.448242,-8.28401 -2.495095,-1.342366 -3.911603,-3.704674 -6.184516,-5.462239 -1.10759,-1.158758 -2.437937,-1.4861 -3.988654,-1.529722 z m -0.01172,1.001953 c 2.858994,0.03984 4.762504,2.591 6.600208,4.468271 2.08427,1.965713 5.156167,3.378674 5.334675,6.634642 0.691086,1.599879 0.92779,4.971277 -0.135949,1.684858 -1.038252,-2.020174 -2.257567,-4.614005 -4.943434,-4.531925 -3.055719,0.101724 -4.431901,-2.850851 -5.720387,-5.093617 -0.04563,-0.920482 -3.949591,-3.72542 -1.135113,-3.162229 z"
           id="path100302" />
      </g>
      <path
         style="font-variation-settings:normal;display:inline;opacity:1;fill:#000000;fill-opacity:1;stroke:#000000;stroke-width:1;stroke-linecap:butt;stroke-linejoin:miter;stroke-miterlimit:4;stroke-dasharray:none;stroke-dashoffset:0;stroke-opacity:1;stop-color:#000000;stop-opacity:1"
         d="m 36.036333,39.293545 c 1.36159,-2.641639 2.72318,-5.283277 4.08477,-7.924916 0.08748,1.488447 0.546377,3.069796 0.408428,4.501856 -1.119516,1.604138 -2.239033,3.208275 -3.358549,4.812413 -0.378216,-0.463118 -0.756433,-0.926235 -1.134649,-1.389353 z"
         id="path94134"
         sodipodi:nodetypes="ccccc" />
      <path
         style="font-variation-settings:normal;display:inline;opacity:1;fill:#000000;fill-opacity:1;stroke:#000000;stroke-width:1;stroke-linecap:butt;stroke-linejoin:miter;stroke-miterlimit:4;stroke-dasharray:none;stroke-dashoffset:0;stroke-opacity:1;stop-color:#000000;stop-opacity:1"
         d="m 57.41327,33.272648 c 0.603279,-1.170015 1.206558,-2.340031 1.809837,-3.510046 -0.887458,-0.216279 -3.061648,0.494852 -3.098251,-0.33468 0.446439,-1.295117 0.892877,-2.590235 1.339316,-3.885352 -0.878716,-0.02801 -2.994088,1.486854 -2.920318,0.27052 -0.193752,-0.782841 0.742528,-3.379758 -0.318794,-2.76986 -0.921809,0.236754 -2.264688,1.87591 -2.917058,1.215276 -0.596541,-0.649661 -0.941962,-2.924126 -1.69908,-2.534827 -0.810053,0.406609 -1.734655,2.686057 -2.458296,1.679873 -0.718823,-1.453731 -1.455293,-1.612855 -2.214649,-0.09294 -0.456877,1.757528 -2.154222,-0.498068 -2.731927,0.410623 -0.326682,1.49085 -1.114058,1.859098 -2.402973,1.005217 -0.37036,0.06235 -0.05956,1.566172 -0.16505,2.028522"
         id="path94140"
         sodipodi:nodetypes="ccccccccccccccc" />
      <g
         id="path99262"
         inkscape:label="yellow ear"
         style="fill:#000000" />
    </g>
  </g>
</svg>
